<svg xmlns="http://www.w3.org/2000/svg" width="1080" height="1080" viewBox="0 0 1080 1080">
  <defs>
    <style>
      .cls-1 {
        fill: #1209d6;
        stroke: #e6a611;
        stroke-width: 1px;
      }

      .cls-2 {
        fill: #e84a02;
        fill-rule: evenodd;
      }
    </style>
  </defs>
  <circle class="cls-1" cx="572.078" cy="565.063" r="333.047"/>
  <path class="cls-2" d="M407.009,629.506s6,33.6,18.178,52.257a42.211,42.211,0,0,0,28.094,18.662s16.056-3.677,26.441-22.395c9.4-16.936,13.221-49.092,13.221-49.092l3.305-413.75s-5.7-34.469-16.526-55.989c-9.776-19.432-24.788-26.128-24.788-26.128a45.18,45.18,0,0,0-29.747,22.4c-12.192,21.777-16.526,60.255-16.526,60.255Z"/>
  <path class="cls-2" d="M812.684,505.22s14.9-5.8,24.324-14.6c8.8-8.215,12.163-19.459,12.163-19.459s-1.085-13.2-9.73-21.892c-9.473-9.518-26.582-14.6-26.582-14.6H644.847v-80.27l-99.73,115.54,99.73,117.973v-82.7H812.684Z"/>
  <path id="Shape_7_copy" data-name="Shape 7 copy" class="cls-2" d="M91.578,436.491s-14.9,5.8-24.324,14.594c-8.8,8.215-12.162,19.46-12.162,19.46s1.084,13.2,9.73,21.891c9.473,9.519,26.582,14.6,26.582,14.6H259.416V587.3l99.729-115.54L259.416,353.788v82.7H91.578Z"/>
</svg>
