<svg xmlns="http://www.w3.org/2000/svg" width="1080" height="1080" viewBox="0 0 1080 1080">
  <defs>
    <style>
      .cls-1 {
        fill: #1209d6;
        stroke: #e6a611;
        stroke-width: 1px;
      }

      .cls-2 {
        fill: #e84a02;
        fill-rule: evenodd;
      }
    </style>
  </defs>
  <circle class="cls-1" cx="572.078" cy="565.063" r="333.047"/>
  <path class="cls-2" d="M370,651s2.042,9.794,8,16c6.042,6.293,16,9,16,9s13.084-1.4,21-8c7.032-5.86,9-17,9-17l-1-383s-2.576-9.833-9-16c-6.065-5.823-16-8-16-8s-10.181.357-17,6c-7.635,6.318-12,18-12,18Z"/>
  <path class="cls-2" d="M451,651s1.738,9.979,8,16c6.722,6.463,18,9,18,9s11.925-1.683,19-8c6.924-6.182,9-17,9-17l-6-252s-2.053-10.825-9-17c-6.541-5.814-18-7-18-7s-9.5,1.22-16,7c-6.98,6.2-11,17-11,17Z"/>
  <path class="cls-2" d="M580,651.466A46.786,46.786,0,0,1,571,666c-5.059,5.434-12.977,10-19,10-5.682,0-13.542-3.991-18-9a38.034,38.034,0,0,1-8-15.534L529,344s3.574-11.635,11-18c6.514-5.583,17-6,17-6s11.287,1.8,18,8c6.272,5.79,8,16,8,16Z"/>
  <path class="cls-2" d="M604,659s3.632,9,11,14c6.589,4.471,17,5,17,5s9.716-.985,16-6c5.686-4.537,8-13.152,8-13.152L658,548s-3.448-9.235-10-15c-5.916-5.206-15-7-15-7s-11.424.8-18,6c-7.377,5.834-10,16.143-10,16.143Z"/>
  <path class="cls-2" d="M287,658s1.54,10.54,8,17c6.539,6.539,18,9,18,9s11.555-.271,18-6c7.03-6.249,9-18,9-18l8-497s-1.9-9.155-8-15c-5.9-5.652-16-8-16-8s-9.781,1.275-17,7c-7.281,5.774-12,16-12,16Z"/>
  <path class="cls-2" d="M213,652V431s2.323-10.382,10-17c6.765-5.832,18-6,18-6s11.915,0.68,18,7c5.912,6.141,7,15.926,7,15.926V652s-1.8,11.07-9,18c-6.235,6-20,6-20,6s-9.175-1.175-15-7C214.944,661.944,213,652,213,652Z"/>
</svg>
