<svg xmlns="http://www.w3.org/2000/svg" width="1080" height="1080" viewBox="0 0 1080 1080">
  <defs>
    <style>
      .cls-1 {
        fill: #1209d6;
        stroke: #e6a611;
        stroke-width: 1px;
      }

      .cls-2 {
        fill: #e84a02;
        fill-rule: evenodd;
      }
    </style>
  </defs>
  <circle class="cls-1" cx="575.188" cy="558.782" r="342.282"/>
  <path class="cls-2" d="M385.438,191.806S399,161.878,411.13,138.587c10.722-20.585,20.187-34.868,20.187-34.868s-95.265-9.939-165.164,34.868c-73.169,46.9-121.12,148.647-121.12,148.647a323.767,323.767,0,0,0-16.517,91.758c-0.613,23.079,7.351,48.655,11.011,71.571C148.74,508.24,187.241,551.5,187.241,551.5s47.506,56.009,110.11,82.582c64.9,27.547,144.977,25.692,144.977,25.692s59.239-11.762,106.439-38.538c48.217-27.355,84.417-69.736,84.417-69.736s33.258-49.58,45.879-102.769c13.063-55.053,5.5-113.78,5.5-113.78s-6.018-37.723-25.692-75.241c-19.781-37.722-53.219-75.241-53.219-75.241s-23.325-21.514-45.879-36.7a270.526,270.526,0,0,0-44.044-23.858l-25.692,82.582s36.039,14.43,66.065,47.715c17.484,19.38,32.121,49.89,38.539,75.241,8.223,32.48,8.667,74.751,0,106.439-11.549,42.224-34.868,69.736-34.868,69.736s-44.9,49.784-108.274,64.23c-22.138,5.046-45.865,7.6-67.9,3.671-39.067-6.962-71.571-25.693-71.571-25.693S263.148,520,231.285,467.08c-18.127-30.107-26.908-96.98-5.506-150.483,17.522-43.8,49.518-85.031,82.582-104.6C346.786,189.247,385.438,191.806,385.438,191.806Z"/>
  <path class="cls-2" d="M468.02,111.059S368.492,259.271,328.548,347.794c-17.2,38.11-5.5,62.4-5.5,62.4s17.908,29.682,40.373,36.7c21.56,6.737,55.055-1.835,55.055-1.835s41.507-21.5,47.714-64.231C480.25,283.993,468.02,111.059,468.02,111.059Z"/>
</svg>
